<?xml version="1.0" encoding="UTF-8" standalone="no"?><svg xmlns="http://www.w3.org/2000/svg" xmlns:xlink="http://www.w3.org/1999/xlink" fill="#37a88a" height="296" version="1" viewBox="0 0 308 296" width="308"><g><path d="M832 2197 l-722 -722 723 -723 722 -722 723 723 722 722 -723 723 -722 722 -723 -723z m1111 -169 l-88 -88 -150 150 -150 150 -383 -383 -382 -382 150 -150 150 -150 -87 -87 -88 -88 -237 237 -238 238 557 557 558 558 237 -237 238 -238 -87 -87z m170 -1110 l-558 -558 -237 237 -238 238 87 87 88 88 150 -150 150 -150 383 383 382 382 -150 150 -150 150 87 87 88 88 237 -237 238 -238 -557 -557z m-340 340 l-218 -218 -217 217 -218 218 217 217 218 218 217 -217 218 -218 -217 -217z" transform="matrix(.1 0 0 -.1 0 296)"/></g></svg>